<?xml version="1.0" encoding="UTF-8"?>
<svg xmlns="http://www.w3.org/2000/svg" xmlns:xlink="http://www.w3.org/1999/xlink" width="60px" height="60px" viewBox="0 0 60 60" version="1.1">
<g id="surface1">
<path style=" stroke:none;fill-rule:nonzero;fill:rgb(100%,100%,100%);fill-opacity:1;" d="M 23.347656 56.234375 C 23.464844 56.234375 45.160156 55.960938 45.160156 55.960938 L 45.394531 51.074219 L 46.761719 49.628906 L 47.738281 43.335938 L 49.421875 41.886719 L 49.8125 25.980469 L 49.109375 25.234375 L 48.441406 24.765625 L 46.566406 22.773438 L 46.058594 22.265625 L 43.285156 20.820312 L 42.070312 20.664062 L 41.367188 20.191406 L 40.9375 19.761719 L 34.644531 17.925781 L 34.136719 17.730469 L 33.550781 17.261719 L 30.148438 15.972656 L 27.960938 15.699219 L 27.414062 5.417969 L 26.867188 5.066406 L 26.433594 5.144531 L 25.886719 4.636719 L 21.707031 4.558594 L 21.46875 4.753906 L 20.921875 5.222656 L 18.929688 27.582031 L 17.132812 28.128906 L 16.429688 27.738281 L 15.648438 27.074219 L 10.171875 26.996094 C 10.171875 26.996094 10.328125 29.964844 10.210938 30.199219 C 10.09375 30.433594 10.761719 32.15625 10.761719 32.15625 L 11.425781 32.78125 L 13.300781 34.304688 L 13.925781 35.28125 C 13.925781 35.28125 15.527344 38.722656 15.488281 38.878906 C 15.449219 39.035156 15.878906 39.542969 15.878906 39.542969 L 16.546875 40.246094 L 18.265625 44.46875 L 19.203125 45.445312 L 20.6875 49.472656 L 21.628906 50.410156 C 21.628906 50.410156 22.683594 55.492188 22.527344 55.570312 C 22.371094 55.648438 23.347656 56.234375 23.347656 56.234375 "/>
<path style=" stroke:none;fill-rule:nonzero;fill:rgb(0%,0%,0%);fill-opacity:1;" d="M 18.753906 4.988281 L 21.183594 4.988281 L 21.183594 37.523438 L 18.753906 37.523438 Z M 26.261719 5.027344 L 28.769531 5.027344 L 28.769531 27.539062 L 26.261719 27.539062 Z M 33.730469 17.480469 L 36.246094 17.480469 L 36.246094 27.539062 L 33.730469 27.539062 Z M 41.234375 20.023438 L 43.753906 20.023438 L 43.753906 30.078125 L 41.234375 30.078125 Z M 48.777344 24.949219 L 51.296875 24.949219 L 51.296875 42.507812 L 48.777344 42.507812 Z M 48.777344 24.949219 "/>
<path style=" stroke:none;fill-rule:nonzero;fill:rgb(0%,0%,0%);fill-opacity:1;" d="M 41.167969 17.480469 L 41.167969 19.953125 L 33.925781 19.964844 L 33.921875 17.492188 Z M 46.285156 20.015625 L 46.289062 22.492188 L 41.269531 22.5 L 41.269531 20.027344 Z M 33.738281 14.980469 L 33.742188 17.492188 L 26.652344 17.5 L 26.644531 14.988281 Z M 21.25 2.5 L 26.253906 2.5 L 26.253906 4.960938 L 21.25 4.960938 Z M 46.304688 22.515625 L 48.730469 22.515625 L 48.730469 24.976562 L 46.304688 24.976562 Z M 46.226562 42.488281 L 48.730469 42.488281 L 48.730469 50.035156 L 46.226562 50.035156 Z M 18.707031 45.03125 L 21.210938 45.03125 L 21.210938 50.035156 L 18.707031 50.035156 Z M 16.207031 39.988281 L 18.707031 39.988281 L 18.707031 44.992188 L 16.207031 44.992188 Z M 13.707031 34.984375 L 16.207031 34.984375 L 16.207031 39.988281 L 13.707031 39.988281 Z M 11.203125 32.441406 L 13.707031 32.441406 L 13.707031 34.984375 L 11.203125 34.984375 Z M 16.207031 27.519531 L 18.707031 27.519531 L 18.707031 30.058594 L 16.207031 30.058594 Z M 8.703125 25.015625 L 11.203125 25.015625 L 11.203125 32.480469 L 8.703125 32.480469 Z M 43.804688 50.035156 L 46.226562 50.035156 L 46.226562 57.5 L 43.804688 57.5 Z M 21.289062 50.035156 L 23.710938 50.035156 L 23.710938 57.5 L 21.289062 57.5 Z M 21.289062 50.035156 "/>
<path style=" stroke:none;fill-rule:nonzero;fill:rgb(0%,0%,0%);fill-opacity:1;" d="M 21.289062 55.078125 L 46.226562 55.078125 L 46.226562 57.5 L 21.289062 57.5 Z M 9.835938 24.976562 L 16.207031 24.976562 L 16.207031 27.480469 L 9.835938 27.480469 Z M 9.835938 24.976562 "/>
</g>
</svg>
