<?xml version="1.0" encoding="UTF-8" standalone="no"?>
<!-- Created with Inkscape (http://www.inkscape.org/) -->

<svg
   version="1.1"
   id="svg1"
   width="287.46039"
   height="332.44043"
   viewBox="0 0 287.46039 332.44043"
   sodipodi:docname="iconFresa.svg"
   inkscape:version="1.4 (86a8ad7, 2024-10-11)"
   inkscape:export-filename="bancal__3.svg"
   inkscape:export-xdpi="96"
   inkscape:export-ydpi="96"
   xmlns:inkscape="http://www.inkscape.org/namespaces/inkscape"
   xmlns:sodipodi="http://sodipodi.sourceforge.net/DTD/sodipodi-0.dtd"
   xmlns="http://www.w3.org/2000/svg"
   xmlns:svg="http://www.w3.org/2000/svg">
  <defs
     id="defs1" />
  <sodipodi:namedview
     id="namedview1"
     pagecolor="#ffffff"
     bordercolor="#000000"
     borderopacity="0.25"
     inkscape:showpageshadow="2"
     inkscape:pageopacity="0.0"
     inkscape:pagecheckerboard="0"
     inkscape:deskcolor="#d1d1d1"
     inkscape:zoom="1.4142136"
     inkscape:cx="289.56021"
     inkscape:cy="223.79928"
     inkscape:window-width="1920"
     inkscape:window-height="1017"
     inkscape:window-x="1912"
     inkscape:window-y="-8"
     inkscape:window-maximized="1"
     inkscape:current-layer="g1"
     inkscape:export-bgcolor="#ffffff00">
    <inkscape:page
       x="0"
       y="0"
       width="287.46039"
       height="332.44043"
       id="page2"
       margin="0"
       bleed="0" />
  </sodipodi:namedview>
  <g
     inkscape:groupmode="layer"
     inkscape:label="Image"
     id="g1"
     transform="translate(-123.13114,-58.584819)">
    <g
       id="g201"
       transform="translate(38.890872,-24.748736)">
      <path
         style="fill:#ffffff"
         d="m 357.79601,403.75795 10.60661,-36.06244 -31.11271,-172.53405 -89.80255,-68.58935 -64.34672,14.14213 -57.98275,50.20458 -21.2132,49.49747 24.04163,84.85281 40.30508,32.52691 67.17514,16.97056 z"
         id="path200" />
      <g
         id="g200"
         transform="translate(3.5355341,31.819802)">
        <path
           style="fill:#81b36e;fill-opacity:1"
           d="m 102.57349,152.36422 c -2.475,-0.76917 -6.686496,-3.21283 -9.358876,-5.43035 -2.67239,-2.21752 -5.19869,-4.03186 -5.614,-4.03186 -1.24446,0 -5.74517,-7.27786 -6.49332,-10.5 -0.69658,-3 -0.69658,-3 1.69926,-0.75 3.51283,3.29899 12.61668,3.22052 16.24275,-0.13999 1.418366,-1.31451 4.029046,-2.96718 5.801516,-3.6726 1.77247,-0.70542 3.39167,-1.41143 3.59823,-1.56889 0.20656,-0.15747 -2.13282,-2.57884 -5.19863,-5.38081 -10.066686,-9.20039 -13.888236,-20.87495 -10.516766,-32.127959 1.04535,-3.48905 1.31751,-3.72373 2.75,-2.37128 6.568306,6.20131 11.055096,8.58754 21.589836,11.48224 16.38065,4.501009 20.58724,6.396239 29.79203,13.422409 4.47608,3.41667 4.47608,3.41667 4.93931,-1.73823 0.28605,-3.1831 1.8843,-8.02368 4.17838,-12.654879 4.11367,-8.30454 4.26982,-11.11113 1.25177,-22.50001 -1.28736,-4.85796 -1.38426,-7.08147 -0.50907,-11.681761 0.99493,-5.229666 0.90278,-5.931965 -1.15805,-8.826136 -2.23899,-3.14437 -2.23899,-3.14437 3.63332,-0.17298 7.9249,4.01 12.21012,8.43582 16.37618,16.913477 3.49613,7.11441 3.49613,7.11441 10.10639,6.56029 8.59777,-0.72072 9.01885,0.27713 2.87736,6.81865 -4.81311,5.12661 -4.95781,5.44878 -3.89432,8.67116 1.08709,3.29392 1.00916,3.43302 -4.9382,8.815069 -3.3235,3.00758 -8.2637,8.49096 -10.97823,12.18528 -4.43393,6.03435 -5.58292,6.95526 -11.30619,9.06183 -11.76574,4.33065 -23.05827,14.01437 -30.63074,26.26688 -3.01897,4.88481 -14.2899,6.44267 -24.23994,3.35045 z"
           id="path3" />
        <path
           style="fill:#e63b40;fill-opacity:1"
           d="m 328.57349,381.95222 c -3.3,-0.99402 -10.05,-3.24527 -15,-5.00277 -4.95,-1.7575 -13.34994,-4.49991 -18.66654,-6.09423 -5.3166,-1.59433 -12.2916,-4.21948 -15.5,-5.83366 -3.2084,-1.61419 -12.13346,-4.77594 -19.83346,-7.02612 -7.7,-2.25018 -21.2,-6.32876 -30,-9.06351 -8.8,-2.73475 -16.78571,-4.98524 -17.74602,-5.00109 -0.96031,-0.0159 -4.33531,-0.88159 -7.5,-1.92387 -3.16469,-1.04228 -9.12898,-2.65196 -13.25398,-3.57704 -13.12248,-2.94293 -28.26793,-8.47742 -35.77694,-13.07369 -4.00231,-2.44983 -7.54016,-4.45423 -7.86189,-4.45423 -1.22439,0 -21.64689,-16.54653 -27.6416,-22.39551 -38.824726,-37.88101 -40.732376,-101.36711 -4.11975,-137.10448 3.94429,-3.85 8.2354,-8.87713 9.53581,-11.17139 7.36299,-12.99033 17.53043,-22.25032 30.56464,-27.83675 6.74682,-2.89167 8.31202,-4.06171 11.59463,-8.6674 13.9317,-19.546939 31.21695,-27.526459 61.85902,-28.556449 46.46432,-1.56184 83.3265,20.197769 103.07505,60.844819 5.72219,11.77757 9.92583,33.48272 14.77103,50.25838 0.50616,1.75247 0.97823,3.51475 1.49384,5.26447 0.47925,1.62635 1.06444,3.22228 1.48685,4.86431 2.89434,11.25106 3.67252,23.12306 5.18657,33.43934 0.44531,3.03426 1.44399,14.88566 2.30408,25.06066 1.96623,23.26061 3.77387,36.39847 7.01711,51 10.93162,49.21571 -3.56274,75.81745 -35.98845,66.05021 z m 14.76397,-27.04778 c 18.75721,-7.01798 17.81196,-34.25405 -1.02474,-29.52634 -2.04025,0.51207 -2.37646,0.32392 -1.85402,-1.03755 7.83348,-20.41371 7.31584,-72.33817 -0.80953,-81.20448 -18.18169,-19.83966 -31.93271,11.09208 -30.26971,68.08915 1.20981,41.46467 9.9228,52.67195 33.958,43.67922 z m -75.94967,-19.36777 c 3.13627,-1.53443 6.89165,-4.34917 8.34528,-6.25498 2.64296,-3.4651 2.64296,-3.4651 4.07444,-0.50943 3.81387,7.87479 18.16602,5.83533 21.73676,-3.08883 4.86897,-12.16875 -3.8603,-48.37097 -14.23552,-59.03784 -11.51837,-11.84217 -41.33528,-10.13079 -56.57175,3.24701 -3.41031,2.99428 -3.41031,2.99428 -4.08005,-1.19403 -2.90536,-18.1691 -41.5385,-19.8713 -57.21359,-2.52084 -13.37186,14.80105 -13.99831,44.40899 -1.16903,55.25218 14.98122,12.66201 48.23572,9.66474 53.73255,-4.843 4.79199,-12.64747 -1.89435,-18.89283 -19.75683,-18.45381 -12.36093,0.30381 -15.17656,-0.88941 -15.17656,-6.43153 0,-6.62149 3.51457,-8.08662 17.46771,-7.28184 10.37922,0.59866 12.88291,0.45385 15.60141,-0.90231 4.04348,-2.01715 3.65921,-2.12882 4.40811,1.2809 1.63097,7.42577 9.6749,8.576 22.68936,3.24443 12.63006,-5.1741 18.77518,-4.09553 22.91656,4.02225 2.41919,4.74199 2.17774,5.27803 -1.69446,3.76198 -17.83122,-6.9813 -39.88869,5.27575 -39.88869,22.16562 0,18.33925 19.33046,27.07662 38.8143,17.54407 z M 135.94993,258.35253 c 1.66644,-1.40222 3.59137,-4.10222 4.27761,-6 1.51911,-4.20101 1.81709,-4.2143 4.34595,-0.19374 15.96818,25.38736 49.39825,-1.05752 47.18853,-37.32851 -0.58851,-9.65987 -0.58851,-9.65987 3.61148,-8.11466 10.08097,3.70888 24.51359,2.26525 35.94999,-3.5959 0.4125,-0.21141 0.75,1.59968 0.75,4.02464 0,8.39413 11.04099,13.93187 22.62819,11.34942 3.12819,-0.69717 3.12819,-0.69717 3.8351,5.10553 1.58444,13.0061 6.76986,18.72963 16.32818,18.02266 12.34821,-0.91333 14.53523,-5.59534 13.66869,-29.26222 -0.71844,-19.62202 0.0428,-24.051 4.54832,-26.46228 7.16527,-3.83474 9.75844,1.70649 10.9243,23.34367 1.35736,25.19099 7.30144,32.18109 21.08282,24.79288 12.05128,-6.46069 11.98901,-47.19464 -0.10005,-65.4458 -9.50284,-14.34666 -29.62796,-13.76483 -38.55147,1.11456 -3.13592,5.22895 -3.13592,5.22895 -3.82354,1.56362 -0.37819,-2.01592 -1.89203,-4.87314 -3.36408,-6.34936 -2.5279,-2.53507 -2.68085,-3.23441 -2.75549,-12.59954 -0.23652,-29.67367 -25.73572,-48.84686 -61.31455,-46.10322 -38.07188,2.9359 -39.58482,31.71065 -1.76738,33.61398 20.49172,1.03134 25.64941,4.63772 25.65722,17.94011 0.004,6.36636 0.004,6.36636 -3.9512,2.79331 -24.30813,-21.96093 -61.76633,-12.26388 -63.82602,16.52308 -0.48046,6.71497 -0.48046,6.71497 -3.29233,6.15259 -5.30609,-1.06122 -12.96136,1.61693 -17.94396,6.27757 -4.61519,4.31697 -4.61519,4.31697 -3.87198,-0.89797 2.85536,-20.03517 -1.43053,-29.71494 -13.15682,-29.71494 -12.18357,0 -15.07839,7.27327 -17.14669,43.08131 -2.78359,48.19166 4.72476,69.2807 20.06918,56.36921 z"
           id="path2"
           sodipodi:nodetypes="ssssssssssscscssssaassssssssssssssssssssssssssssssssssssssssssssssssssssccsssssss" />
        <path
           style="fill:#e63b40;fill-opacity:1"
           d="m 214.03214,171.09954 c -4.19613,-0.46983 -8.76186,-0.67299 -12.625,1.03124 -0.93734,0.41351 -1.67678,1.24463 -2.25,2.09375 -0.45569,0.67502 -0.7663,1.4741 -0.875,2.28125 -0.2403,1.78429 -6.4e-4,3.61959 0.53125,5.375 1.23669,4.08149 9.79398,6.85158 10.75,6.9375 5.56297,0.49997 4.93829,0.48572 7.375,0.15625 1.33579,-0.18061 2.77337,-0.37948 3.875,-1.15625 1.69933,-1.19822 2.95492,-3.08528 3.6875,-5.03125 0.54526,-1.44837 0.769,-3.1205 0.4063,-4.625 -0.65913,-2.73413 -4.17232,-4.61672 -5.40625,-5.34375 -1.17213,-0.69062 -3.56982,-1.50612 -5.4688,-1.71874 z"
           id="path4"
           sodipodi:nodetypes="aaaassaaassa" />
        <path
           style="fill:#e63b40;fill-opacity:1;stroke-width:0.705324"
           d="m 259.07511,309.93338 c -2.87985,0.92826 -5.91946,2.13132 -7.9194,4.32485 -0.48528,0.53225 -0.71416,1.26847 -0.82917,1.96757 -0.0915,0.55574 -0.0504,1.14696 0.12476,1.6844 0.38719,1.18806 1.10296,2.26823 1.98495,3.2132 2.05072,2.19714 8.47602,1.43946 9.12571,1.21474 3.78048,-1.30767 3.36871,-1.13458 4.85746,-2.05103 0.81611,-0.50241 1.69305,-1.0459 2.17473,-1.85362 0.74301,-1.24596 0.98664,-2.79425 0.87122,-4.22707 -0.0861,-1.06642 -0.44971,-2.1794 -1.14489,-3.01643 -1.26332,-1.52117 -4.12845,-1.67714 -5.1548,-1.77316 -0.97497,-0.0912 -2.78729,0.0964 -4.09057,0.51655 z"
           id="path4-1"
           sodipodi:nodetypes="aaaassaaassa" />
        <path
           style="fill:#e63b40;fill-opacity:1;stroke-width:1.1669"
           d="m 147.20897,219.42203 c -0.26349,5.10649 -0.20385,10.63119 1.95572,15.11338 0.524,1.08759 1.50494,1.89371 2.49567,2.49767 0.78753,0.48023 1.70551,0.77261 2.61974,0.82089 2.021,0.10676 4.06908,-0.37034 6.0089,-1.19147 4.51032,-1.90927 7.08455,-12.50886 7.12084,-13.67012 0.21112,-6.75733 0.23448,-6.00281 -0.28961,-8.90643 -0.28732,-1.59174 -0.60157,-3.30432 -1.54427,-4.55268 -1.45421,-1.92564 -3.65479,-3.24575 -5.88862,-3.92936 -1.66272,-0.50849 -3.55653,-0.60708 -5.22494,-0.0151 -3.03208,1.07486 -4.92683,5.50298 -5.6663,7.06497 -0.70242,1.48379 -1.46798,4.45773 -1.58713,6.76872 z"
           id="path4-1-2"
           sodipodi:nodetypes="aaaassaaassa" />
      </g>
    </g>
  </g>
</svg>
